<svg id="Layer_1" data-name="Layer 1" xmlns="http://www.w3.org/2000/svg" viewBox="0 0 1180.6967 544.5532"><defs><style>.cls-1{fill:#48d294;}</style></defs><title>logo</title><path class="cls-1" d="M497.3081,261.6151l-15.71-166.06-15.3964,166.06H420.9556L395.5044,22.5018h35.82L444.8354,193.117,459.9175,22.5018h43.518l15.0821,170.3017L532.0283,22.5018h35.82L542.3975,261.6151Z" transform="translate(-18.3047 -14.8929)"/><path class="cls-1" d="M676.7168,261.6151H587.7954V22.659h88.9214V58.7928H623.144v63.1563h44.3033v36.1337H623.144v67.5547h53.5728Z" transform="translate(-18.3047 -14.8929)"/><path class="cls-1" d="M804.125,201.4442q0,32.2851-12.2539,46.1884c-8.3262,9.27-21.209,13.8252-38.6484,13.8252H701.85V22.659h49.6455c18.3819,0,31.5781,4.87,39.2764,14.61s11.625,24.0371,11.625,43.0468V88.8c0,25.1368-8.169,43.2041-21.3652,47.4463,13.1962,4.2412,23.0937,17.752,23.0937,41.6319ZM766.7344,80.159c0-17.124-3.7705-23.251-15.2393-23.251h-14.14V119.75h14.2968c6.4415,0,10.6836-2.0429,12.5684-6.1269,1.7285-4.085,2.67-10.9981,2.67-20.8955Zm1.8847,99.919c0-18.6954-4.0839-26.3936-17.91-26.3936H737.3555v71.7969h15.7109c11.3106,0,15.7109-5.8135,15.7109-25.1367Z" transform="translate(-18.3047 -14.8929)"/><path class="cls-1" d="M829.8867,22.659h50.1162c19.3233,0,32.5205,5.8125,39.9053,16.9668,7.3828,11.3115,10.2109,24.9805,10.2109,44.461V200.1873c0,19.4805-2.8281,33.1485-10.2109,44.3028-7.541,11.3115-20.8955,17.125-40.2187,17.125H829.8867Zm35.3487,36.1338V225.6375h14.7675c11.3116-.4707,14.7686-6.9121,14.7686-25.9218V83.7723c0-18.8525-3.6133-24.9795-15.3965-24.9795Z" transform="translate(-18.3047 -14.8929)"/><path class="cls-1" d="M1044.8027,261.6151H955.8809V22.659h88.9218V58.7928H991.23v63.1563h44.3037v36.1337H991.23v67.5547h53.5732Z" transform="translate(-18.3047 -14.8929)"/><path class="cls-1" d="M1135.7637,22.5018h35.6621l-34.25,239.1133h-47.1309l-34.248-239.1133h35.6621l22.1523,189.7822Z" transform="translate(-18.3047 -14.8929)"/><path d="M310.7993,463.992a55.4719,55.4719,0,0,0,4.9717-4.64,6.6351,6.6351,0,0,1,9.1147-.6631,5.8527,5.8527,0,0,1,2.1543,4.3086,6.3872,6.3872,0,0,1-1.4917,4.64,8.8732,8.8732,0,0,0-.8286.9951,16.4752,16.4752,0,0,1-1.9887,1.9883q-1.4913,1.3213-3.1485,2.8174a31.9409,31.9409,0,0,1-4.3086,3.1485q-2.6572,1.6552-5.6347,3.3144a56.555,56.555,0,0,1-6.7945,3.1484q-3.8137,1.4913-7.7885,2.6514a61.3575,61.3575,0,0,1-8.9488,1.8233,75.4145,75.4145,0,0,1-9.9433.663,181.1326,181.1326,0,0,1-88.1626-23.5322,343.2,343.2,0,0,1-33.31-21.709,245.5618,245.5618,0,0,1-26.6812-23.0351Q116.74,469.2924,113.7593,500.45q-4.3117,40.1,3.6455,48.0586a6.3556,6.3556,0,0,1,1.9888,4.6407,5.841,5.841,0,0,1-1.9888,4.4746,6.6679,6.6679,0,0,1-4.64,1.8222,7.0288,7.0288,0,0,1-4.64-1.6572q-3.9771-4.311-6.1313-11.9316-2.16-7.6275-2.6519-23.2-.4965-15.583,3.9775-44.5791,4.4745-29.0055,13.7549-69.4356-3.6512-4.3125-6.7949-8.1211-3.1538-3.813-4.9712-6.2969a20.107,20.107,0,0,1-2.4858-4.1425q-3.3171-6.3-.6631-11.6006,3.309-6.2929,15.5776-8.6172,3.9771-.6606,9.28-1.6572,16.57-66.9463,53.6934-192.5664,4.3029-14.58,6.6284-22.2061-.9939,1.328-1.6572,2.32a6.0451,6.0451,0,0,1-4.3086,2.6514,6.6924,6.6924,0,0,1-4.8057-1.16,5.6454,5.6454,0,0,1-2.4858-4.143,6.8241,6.8241,0,0,1,1.3256-4.9717q7.2862-10.2693,16.5718-35.4639,2.3152-6.96,3.646-10.2744a69.3917,69.3917,0,0,1,3.48-7.292,13.8589,13.8589,0,0,1,4.64-5.4687,10.4314,10.4314,0,0,1,5.4688-1.4913,6.3082,6.3082,0,0,1,5.3032,2.6514q2.3145,3.3171-.4971,15.2461-2.82,11.9319-20.7153,73.2481Q157.5093,299.9324,141.2686,364.56q35.4609-10.6026,69.2705-34.6348a317.3818,317.3818,0,0,0,59.3276-54.3564,427.5927,427.5927,0,0,0,44.5786-63.8018Q333.5,178.295,342.6177,145.9769q9.1113-32.3152,7.1255-57.5044-2.6565-29.83-20.5489-45.2417-17.8981-15.4116-49.7158-15.4116-22.8692,0-47.396,10.1089a200.963,200.963,0,0,0-46.2353,26.8462,364.7491,364.7491,0,0,0-42.7559,39.11,461.8209,461.8209,0,0,0-37.95,45.7388q-16.9029,23.3664-31.1553,47.8926Q47.14,243.9224,37.0313,279.7122q-10.1141,35.7957-2.8174,48.39a6.1783,6.1783,0,0,1,.6631,4.8056,6.6955,6.6955,0,0,1-2.9834,3.9776,5.6574,5.6574,0,0,1-4.9712.6631,6.6669,6.6669,0,0,1-3.9776-3.1494q-4.6451-7.9542-4.64-20.7139a114.882,114.882,0,0,1,3.646-27.51A263.3515,263.3515,0,0,1,32.06,254.6888q6.4629-16.7329,14.2519-32.647,7.7835-15.9088,16.7373-31.1552Q104.4761,118.97,157.84,71.5687q63.3026-56.6756,121.6382-56.6758,37.1155,0,58.499,18.7261,21.3772,18.7295,24.36,53.8589,3.31,36.7894-14.583,84.1855-17.8982,47.4009-52.0361,91.8086a369.2291,369.2291,0,0,1-48.2242,52.8638,313.7978,313.7978,0,0,1-53.8589,39.2763,228.0249,228.0249,0,0,1-56.0131,23.2q-3.3173,12.9258-5.9659,23.8633a4.729,4.729,0,0,1-.1655.9951,5.2352,5.2352,0,0,0-.166,1.3252,287.6734,287.6734,0,0,0,24.6924,22.5381,291.75,291.75,0,0,0,32.1494,22.3721,179.0334,179.0334,0,0,0,41.7612,18.3945,159.071,159.071,0,0,0,46.2359,6.961,54.0386,54.0386,0,0,0,21.3779-4.31Q307.648,466.641,310.7993,463.992ZM114.4219,384.1151a64.1021,64.1021,0,0,0,6.2973,8.9492q1.3206-5.3057,2.6514-10.9375c-1.9883.4453-3.0967.6631-3.314.6631A23.2962,23.2962,0,0,0,114.4219,384.1151Z" transform="translate(-18.3047 -14.8929)"/><path d="M448.5112,317.4959a5.5787,5.5787,0,0,1,4.64,1.4922,6.6338,6.6338,0,0,1,.6626,9.1143q-2.6565,2.9825-6.96,7.623-4.3118,4.6451-15.9092,14.9151a243.4026,243.4026,0,0,1-22.8691,18.0634,139.7636,139.7636,0,0,1-26.6812,14.086q-15.4116,6.2914-29,6.2969-14.589,0-22.87-8.6172-8.2808-8.6148-8.2856-23.8633,0-25.1851,17.5659-52.0362,8.9494-13.92,19.2236-21.5429,10.2693-7.6209,19.8863-7.6236,9.9433,0,15.246,5.9654,4.9717,5.3056,4.9717,13.59,0,14.253-11.4345,28.503-11.4346,14.2559-24.6924,14.2519-13.26,0-20.2178-11.9316-7.6283,16.9042-7.623,30.8242,0,9.6167,4.309,14.583,4.3031,4.9716,13.92,4.9717a60.0419,60.0419,0,0,0,18.3946-3.1485,98.7435,98.7435,0,0,0,18.0635-7.789A165.2477,165.2477,0,0,0,405.9214,354.12q8.7772-6.4629,15.08-11.9317,6.2922-5.4683,12.0976-11.1025,5.7949-5.6324,7.7891-7.9551c1.3257-1.543,2.32-2.6514,2.9829-3.3145A7.7838,7.7838,0,0,1,448.5112,317.4959ZM377.9146,288.33q-6.3,0-14.086,6.6289a80.2469,80.2469,0,0,0-14.749,17.2344,4.2074,4.2074,0,0,1,1.6572,2.32q3.6431,10.2774,11.2686,10.2744,4.9716,0,10.44-5.1377a45.2771,45.2771,0,0,0,9.1147-12.0976q3.6432-6.96,3.6456-12.5938a6.77,6.77,0,0,0-1.6568-4.9717Q382.2207,288.3319,377.9146,288.33Z" transform="translate(-18.3047 -14.8929)"/><path d="M565.1733,317.1649a6.7891,6.7891,0,0,1-.1655,3.3144,6.5761,6.5761,0,0,1-1.6572,2.8174,7.8619,7.8619,0,0,1-3.1489,1.8223q-35.1351,8.95-71.59,35.7959a59.0419,59.0419,0,0,1,3.314,20.5488q0,22.5351-16.5718,47.5615-16.5769,25.0211-37.4526,37.6182-11.5972,7.2876-20.88,7.292a19.9909,19.9909,0,0,1-9.6118-2.32q-10.2693-5.3057-8.6172-19.2237,1.6619-13.92,15.5776-34.6347,13.92-20.7174,35.795-41.5957,10.27-9.9433,21.875-19.2237-3.9771-4.9716-13.5889-11.9316-3.6512-2.6484-5.6343-4.3086a45.0842,45.0842,0,0,1-4.64-4.6406,19.3255,19.3255,0,0,1-3.8115-6.1309,20.5393,20.5393,0,0,1-1.16-7.126q0-6.6268,5.1372-14.583a65.2356,65.2356,0,0,1,12.76-14.4179q7.6207-6.4629,14.5835-11.27a105.2526,105.2526,0,0,1,12.2631-7.457q8.2809-4.3037,12.2632-1.3257,3.6431,2.6565,2.6514,6.6284a6.22,6.22,0,0,1-2.4854,4.3086,5.3522,5.3522,0,0,1-4.8061.9942H495.24q-8.9487,3.9785-24.0293,16.7383Q456.1248,315.179,456.13,322.8a7.5515,7.5515,0,0,0,2.1543,5.3028,60.1994,60.1994,0,0,0,8.12,6.6289q10.9372,7.954,15.9092,14.583,37.7833-27.5068,74.9048-36.7891a6.52,6.52,0,0,1,4.9716.6621A6.12,6.12,0,0,1,565.1733,317.1649ZM431.2725,455.7059q17.8974-10.9365,32.812-33.31,14.915-22.371,14.915-40.9326a51.0253,51.0253,0,0,0-1.3257-12.2627q-27.1809,21.8745-45.7387,46.0693-18.5582,24.19-20.2178,38.7784-.66,4.9716,1.6572,5.9658Q419.0142,462.9983,431.2725,455.7059Z" transform="translate(-18.3047 -14.8929)"/><path d="M673.3887,313.6854A6.0031,6.0031,0,0,1,677.0342,317a6.4629,6.4629,0,0,1-3.1485,8.7823q-33.1464,16.2437-59.6591,5.9658a93.4671,93.4671,0,0,1-13.7549,38.2812q-10.7739,16.74-26.3491,17.4h-1.3257q-14.5884,0-21.5435-12.2627-6.96-14.247-3.1489-34.1386a102.7092,102.7092,0,0,1,14.749-36.79q14.581-22.5351,31.1553-21.2109a7.1029,7.1029,0,0,1,4.4746,2.32,5.5732,5.5732,0,0,1,1.4912,4.64v.6631q14.5811,2.3219,15.2461,26.8457v.6631q21.8745,10.938,53.03-3.9775A6.5482,6.5482,0,0,1,673.3887,313.6854ZM573.791,374.5037q10.2693-.3265,18.395-16.0752a91.0706,91.0706,0,0,0,9.7774-33.6406,23.3326,23.3326,0,0,1-3.646-2.9834,35.6881,35.6881,0,0,1-9.4458-12.76q-2.82-6.79-1.16-12.0977-6.96,3.3164-14.2519,14.584a87.2785,87.2785,0,0,0-12.5948,31.4863q-3.3163,17.2368,1.6573,25.8516Q565.8318,374.8352,573.791,374.5037Z" transform="translate(-18.3047 -14.8929)"/><path d="M795.0244,314.3475c1.6572-.5488,2.4854-.8281,2.4854-.8281s.7715.4453,2.32,1.3261a6.73,6.73,0,0,1,3.1484,3.8106,5.6986,5.6986,0,0,1-.4971,4.8057,388.6776,388.6776,0,0,1-24.8584,40.7675q-29.168,42.7558-47.7265,42.7559-7.629,0-11.6006-5.6348a25.2853,25.2853,0,0,1-4.1426-12.0976q-.832-7.4575,1.3252-18.7266,2.1519-11.2632,4.8057-21.875,2.65-10.6026,7.624-26.8467l.3311-1.3252q-16.5777,25.8516-30.3272,40.27-13.7563,14.4185-26.6807,14.4179-8.9487,0-12.9257-7.292-4.6377-8.9487.331-29.332a200.5439,200.5439,0,0,1,11.9326-35.63q6.96-15.2416,10.6055-20.55a5.5487,5.5487,0,0,1,3.9775-2.8164,6.14,6.14,0,0,1,4.8057.9942,6.2455,6.2455,0,0,1,2.6514,4.1425,6.0585,6.0585,0,0,1-.8281,4.6407q-6.961,10.6113-16.4063,37.7841-9.4469,27.18-5.4687,34.47a1.3259,1.3259,0,0,0,1.3251.6621q5.2984,0,12.43-5.8,7.1222-5.7949,15.2461-16.5723,8.1168-10.7665,12.76-17.7314,4.6377-6.961,11.2695-17.5665,8.2807-12.5918,11.1026-16.0742,2.8125-3.48,6.4629-3.48a7.2346,7.2346,0,0,1,5.9668,2.9824,10.3216,10.3216,0,0,1,1.6562,4.1435,23.4273,23.4273,0,0,1-.6621,7.126q-.9946,4.9717-2.4863,10.1094-1.4913,5.1416-4.4746,16.0742-17.8975,59.9926-11.9317,67.9443a1.3361,1.3361,0,0,0,1.3262.6631q5.9663,0,16.9033-11.6006a226.5655,226.5655,0,0,0,22.5381-28.8349q11.5971-17.2295,21.875-36.127A6.717,6.717,0,0,1,795.0244,314.3475Z" transform="translate(-18.3047 -14.8929)"/><path d="M856.1738,278.7181a6.796,6.796,0,0,1,6.6289,6.6294,5.8225,5.8225,0,0,1-1.9882,4.4736,6.6441,6.6441,0,0,1-4.6407,1.8233q-10.9365,0-24.8574,15.7431A191.5415,191.5415,0,0,0,806.79,342.52a333.2328,333.2328,0,0,0-18.2295,38.9434,5.972,5.972,0,0,1-5.9658,3.9775,6.8207,6.8207,0,0,1-5.6347-3.1484,5.4027,5.4027,0,0,1-.6621-4.4746q5.9647-31.4839,10.2744-50.0469,4.6449-21.876,8.2861-34.4707,3.3091-11.2617,5.8-15.7427,2.4858-4.4744,6.7949-4.4746a6.6758,6.6758,0,0,1,6.2969,3.646q2.9824,5.3056-1.16,20.55-4.1484,15.2476-10.44,25.1885a10.7223,10.7223,0,0,1-1.6572,1.3262q-.6679,2.9825-1.3252,6.2969Q829.3222,278.72,856.1738,278.7181Z" transform="translate(-18.3047 -14.8929)"/><path d="M970.3506,314.0164c1.6572-.55,2.4853-.8291,2.4853-.8291s.7715.4453,2.32,1.3262a6.7287,6.7287,0,0,1,3.1484,3.8115,5.695,5.695,0,0,1-.4971,4.8057q-1.6626,2.9825-4.4746,7.457-2.82,4.4751-9.7773,15.0811a158.5751,158.5751,0,0,1-15.4121,19.8857q-8.4507,9.2842-18.3946,18.7266a85.4994,85.4994,0,0,1-21.5429,15.081,51.4808,51.4808,0,0,1-22.5381,5.6338,24.655,24.655,0,0,1-6.795-.9941,29.645,29.645,0,0,1-7.623-3.6455q-4.14-2.6573-6.6289-9.1153a43.9882,43.9882,0,0,1-2.4854-15.7431q0-26.5122,16.9034-59.6582,18.558-35.4624,36.458-35.4649a13.4909,13.4909,0,0,1,9.9433,3.9776q5.2985,6.3,3.9776,21.5439a8.7321,8.7321,0,0,1-1.3262,3.1485,5.6323,5.6323,0,0,1-2.6514,2.1543,8.8175,8.8175,0,0,1-3.3144.6621,6.181,6.181,0,0,1-4.3086-2.4844,6.2961,6.2961,0,0,1-1.3262-4.8067q.9946-8.9487-.6621-11.27h-.332q-5.9664,0-15.7432,13.2578-9.7792,13.26-17.2344,33.1446-7.4574,19.8852-7.458,35.7949,0,8.6235,2.6514,12.9267,2.65,3.6432,7.9551,3.6455,11.2632,0,24.1953-8.4521A114.1265,114.1265,0,0,0,933.8926,362.24q11.1006-12.9258,19.2226-24.36,8.1182-11.4345,13.4239-20.7148A6.7088,6.7088,0,0,1,970.3506,314.0164Z" transform="translate(-18.3047 -14.8929)"/><path d="M1082.208,317.4959a5.5767,5.5767,0,0,1,4.64,1.4922,6.6344,6.6344,0,0,1,.663,9.1143q-2.6571,2.9825-6.96,7.623-4.311,4.6451-15.9092,14.9151a243.4672,243.4672,0,0,1-22.8691,18.0634,139.7736,139.7736,0,0,1-26.6807,14.086q-15.4116,6.2914-29.001,6.2969-14.5884,0-22.8691-8.6172-8.2808-8.6148-8.2862-23.8633,0-25.1851,17.5665-52.0362,8.9487-13.92,19.2226-21.5429,10.27-7.6209,19.8867-7.6236,9.9433,0,15.2461,5.9654,4.9717,5.3056,4.9717,13.59,0,14.253-11.4346,28.503-11.4345,14.2559-24.6924,14.2519-13.26,0-20.2177-11.9316-7.6275,16.9042-7.6231,30.8242,0,9.6167,4.3086,14.583,4.3038,4.9716,13.9209,4.9717a60.04,60.04,0,0,0,18.3946-3.1485,98.7425,98.7425,0,0,0,18.0634-7.789,165.2593,165.2593,0,0,0,17.0694-11.1035q8.7773-6.4629,15.08-11.9317,6.2931-5.4683,12.0977-11.1025,5.7949-5.6324,7.7891-7.9551c1.3252-1.543,2.32-2.6514,2.9824-3.3145A7.7864,7.7864,0,0,1,1082.208,317.4959Zm-70.5967-29.166q-6.3,0-14.0859,6.6289a80.2329,80.2329,0,0,0-14.749,17.2344,4.21,4.21,0,0,1,1.6572,2.32q3.6431,10.2774,11.2685,10.2744,4.9718,0,10.4405-5.1377a45.2775,45.2775,0,0,0,9.1142-12.0976q3.6446-6.96,3.6465-12.5938a6.7719,6.7719,0,0,0-1.6572-4.9717Q1015.9176,288.3319,1011.6113,288.33Z" transform="translate(-18.3047 -14.8929)"/><path d="M1198.87,317.1649a6.7845,6.7845,0,0,1-.166,3.3144,6.5631,6.5631,0,0,1-1.6572,2.8174,7.8561,7.8561,0,0,1-3.1485,1.8223q-35.1342,8.95-71.5908,35.7959a59.0415,59.0415,0,0,1,3.3145,20.5488q0,22.5351-16.5713,47.5615-16.5777,25.0211-37.4531,37.6182-11.5973,7.2876-20.8809,7.292a19.9915,19.9915,0,0,1-9.6113-2.32q-10.27-5.3057-8.6172-19.2237,1.6626-13.92,15.5771-34.6347,13.92-20.7174,35.7959-41.5957,10.2686-9.9433,21.875-19.2237-3.9769-4.9716-13.5888-11.9316-3.6519-2.6484-5.6348-4.3086a45.132,45.132,0,0,1-4.6406-4.6406,19.3546,19.3546,0,0,1-3.8116-6.1309,20.5534,20.5534,0,0,1-1.16-7.126q0-6.6268,5.1377-14.583a65.2147,65.2147,0,0,1,12.7607-14.4179q7.62-6.4629,14.583-11.27a105.2209,105.2209,0,0,1,12.2637-7.457q8.2807-4.3037,12.2627-1.3257,3.643,2.6565,2.6514,6.6284a6.2181,6.2181,0,0,1-2.4854,4.3086,5.3512,5.3512,0,0,1-4.8056.9942h-.3321q-8.9487,3.9785-24.0293,16.7383-15.0849,12.763-15.08,20.3837a7.5541,7.5541,0,0,0,2.1543,5.3028,60.1756,60.1756,0,0,0,8.12,6.6289q10.938,7.954,15.9091,14.583,37.7842-27.5068,74.9053-36.7891a6.5211,6.5211,0,0,1,4.9717.6621A6.12,6.12,0,0,1,1198.87,317.1649Zm-133.9013,138.541q17.8974-10.9365,32.8125-33.31,14.9149-22.371,14.915-40.9326a50.9984,50.9984,0,0,0-1.3262-12.2627q-27.18,21.8745-45.7383,46.0693-18.558,24.19-20.2177,38.7784-.6608,4.9716,1.6572,5.9658Q1052.711,462.9983,1064.9688,455.7059Z" transform="translate(-18.3047 -14.8929)"/></svg>